<mxfile host="app.diagrams.net" modified="2024-10-18T15:01:33.487Z" agent="Mozilla/5.0 (Windows NT 10.0; Win64; x64) AppleWebKit/537.36 (KHTML, like Gecko) Chrome/126.0.0.0 YaBrowser/24.7.0.0 Safari/537.36" etag="fkyt3KZW0Rte747FiO54" version="21.6.6" type="device">
  <diagram name="Страница 1" id="km0a7PDAeaeff6MlUf7y">
    <mxGraphModel dx="2261" dy="783" grid="1" gridSize="10" guides="1" tooltips="1" connect="1" arrows="1" fold="1" page="1" pageScale="1" pageWidth="827" pageHeight="1169" math="0" shadow="0">
      <root>
        <mxCell id="0" />
        <mxCell id="1" parent="0" />
        <mxCell id="FnhA5sjkMmNVSiz1tZPv-25" value="" style="edgeStyle=orthogonalEdgeStyle;rounded=0;orthogonalLoop=1;jettySize=auto;html=1;entryX=0;entryY=0.5;entryDx=0;entryDy=0;" edge="1" parent="1" source="FnhA5sjkMmNVSiz1tZPv-1" target="FnhA5sjkMmNVSiz1tZPv-24">
          <mxGeometry relative="1" as="geometry">
            <Array as="points">
              <mxPoint x="240" y="470" />
              <mxPoint x="240" y="555" />
            </Array>
          </mxGeometry>
        </mxCell>
        <mxCell id="FnhA5sjkMmNVSiz1tZPv-27" style="edgeStyle=orthogonalEdgeStyle;rounded=0;orthogonalLoop=1;jettySize=auto;html=1;exitX=1;exitY=0.5;exitDx=0;exitDy=0;entryX=0;entryY=0.5;entryDx=0;entryDy=0;" edge="1" parent="1" source="FnhA5sjkMmNVSiz1tZPv-1" target="FnhA5sjkMmNVSiz1tZPv-26">
          <mxGeometry relative="1" as="geometry" />
        </mxCell>
        <mxCell id="FnhA5sjkMmNVSiz1tZPv-1" value="Session" style="rounded=0;whiteSpace=wrap;html=1;" vertex="1" parent="1">
          <mxGeometry x="80" y="440" width="120" height="60" as="geometry" />
        </mxCell>
        <mxCell id="FnhA5sjkMmNVSiz1tZPv-15" value="" style="edgeStyle=orthogonalEdgeStyle;rounded=0;orthogonalLoop=1;jettySize=auto;html=1;" edge="1" parent="1" source="FnhA5sjkMmNVSiz1tZPv-5" target="FnhA5sjkMmNVSiz1tZPv-14">
          <mxGeometry relative="1" as="geometry" />
        </mxCell>
        <mxCell id="FnhA5sjkMmNVSiz1tZPv-21" value="" style="edgeStyle=orthogonalEdgeStyle;rounded=0;orthogonalLoop=1;jettySize=auto;html=1;" edge="1" parent="1" source="FnhA5sjkMmNVSiz1tZPv-5" target="FnhA5sjkMmNVSiz1tZPv-14">
          <mxGeometry relative="1" as="geometry" />
        </mxCell>
        <mxCell id="FnhA5sjkMmNVSiz1tZPv-22" style="edgeStyle=orthogonalEdgeStyle;rounded=0;orthogonalLoop=1;jettySize=auto;html=1;exitX=1;exitY=0.5;exitDx=0;exitDy=0;" edge="1" parent="1" source="FnhA5sjkMmNVSiz1tZPv-5" target="FnhA5sjkMmNVSiz1tZPv-23">
          <mxGeometry relative="1" as="geometry">
            <mxPoint x="280" y="280" as="targetPoint" />
          </mxGeometry>
        </mxCell>
        <mxCell id="FnhA5sjkMmNVSiz1tZPv-5" value="Room" style="rounded=0;whiteSpace=wrap;html=1;" vertex="1" parent="1">
          <mxGeometry x="80" y="210" width="120" height="60" as="geometry" />
        </mxCell>
        <mxCell id="FnhA5sjkMmNVSiz1tZPv-9" value="" style="edgeStyle=orthogonalEdgeStyle;rounded=0;orthogonalLoop=1;jettySize=auto;html=1;" edge="1" parent="1" source="FnhA5sjkMmNVSiz1tZPv-7" target="FnhA5sjkMmNVSiz1tZPv-8">
          <mxGeometry relative="1" as="geometry" />
        </mxCell>
        <mxCell id="FnhA5sjkMmNVSiz1tZPv-10" style="edgeStyle=orthogonalEdgeStyle;rounded=0;orthogonalLoop=1;jettySize=auto;html=1;" edge="1" parent="1" source="FnhA5sjkMmNVSiz1tZPv-7">
          <mxGeometry relative="1" as="geometry">
            <mxPoint x="280" y="760" as="targetPoint" />
            <Array as="points">
              <mxPoint x="240" y="690" />
              <mxPoint x="240" y="760" />
            </Array>
          </mxGeometry>
        </mxCell>
        <mxCell id="FnhA5sjkMmNVSiz1tZPv-28" value="" style="edgeStyle=orthogonalEdgeStyle;rounded=0;orthogonalLoop=1;jettySize=auto;html=1;" edge="1" parent="1" source="FnhA5sjkMmNVSiz1tZPv-7" target="FnhA5sjkMmNVSiz1tZPv-8">
          <mxGeometry relative="1" as="geometry" />
        </mxCell>
        <mxCell id="FnhA5sjkMmNVSiz1tZPv-30" style="edgeStyle=orthogonalEdgeStyle;rounded=0;orthogonalLoop=1;jettySize=auto;html=1;exitX=1;exitY=0.5;exitDx=0;exitDy=0;entryX=0;entryY=0.5;entryDx=0;entryDy=0;" edge="1" parent="1" source="FnhA5sjkMmNVSiz1tZPv-7" target="FnhA5sjkMmNVSiz1tZPv-29">
          <mxGeometry relative="1" as="geometry" />
        </mxCell>
        <mxCell id="FnhA5sjkMmNVSiz1tZPv-7" value="SoundFrame" style="rounded=0;whiteSpace=wrap;html=1;" vertex="1" parent="1">
          <mxGeometry x="80" y="660" width="120" height="60" as="geometry" />
        </mxCell>
        <mxCell id="FnhA5sjkMmNVSiz1tZPv-8" value="User" style="whiteSpace=wrap;html=1;rounded=0;" vertex="1" parent="1">
          <mxGeometry x="280" y="610" width="120" height="60" as="geometry" />
        </mxCell>
        <mxCell id="FnhA5sjkMmNVSiz1tZPv-11" value="Array[Byte]" style="whiteSpace=wrap;html=1;rounded=0;" vertex="1" parent="1">
          <mxGeometry x="280" y="730" width="120" height="60" as="geometry" />
        </mxCell>
        <mxCell id="FnhA5sjkMmNVSiz1tZPv-14" value="List[Session]" style="whiteSpace=wrap;html=1;rounded=0;" vertex="1" parent="1">
          <mxGeometry x="280" y="150" width="120" height="60" as="geometry" />
        </mxCell>
        <mxCell id="FnhA5sjkMmNVSiz1tZPv-16" value="" style="edgeStyle=orthogonalEdgeStyle;rounded=0;orthogonalLoop=1;jettySize=auto;html=1;entryX=0;entryY=0.5;entryDx=0;entryDy=0;" edge="1" parent="1" source="FnhA5sjkMmNVSiz1tZPv-17" target="FnhA5sjkMmNVSiz1tZPv-18">
          <mxGeometry relative="1" as="geometry" />
        </mxCell>
        <mxCell id="FnhA5sjkMmNVSiz1tZPv-17" value="User" style="rounded=0;whiteSpace=wrap;html=1;" vertex="1" parent="1">
          <mxGeometry x="80" y="920" width="120" height="60" as="geometry" />
        </mxCell>
        <mxCell id="FnhA5sjkMmNVSiz1tZPv-18" value="UserId" style="whiteSpace=wrap;html=1;rounded=0;" vertex="1" parent="1">
          <mxGeometry x="280" y="920" width="120" height="60" as="geometry" />
        </mxCell>
        <mxCell id="FnhA5sjkMmNVSiz1tZPv-23" value="RoomId" style="whiteSpace=wrap;html=1;rounded=0;" vertex="1" parent="1">
          <mxGeometry x="280" y="270" width="120" height="60" as="geometry" />
        </mxCell>
        <mxCell id="FnhA5sjkMmNVSiz1tZPv-24" value="User" style="whiteSpace=wrap;html=1;rounded=0;" vertex="1" parent="1">
          <mxGeometry x="280" y="525" width="120" height="60" as="geometry" />
        </mxCell>
        <mxCell id="FnhA5sjkMmNVSiz1tZPv-26" value="WebsocketConnection" style="rounded=0;whiteSpace=wrap;html=1;" vertex="1" parent="1">
          <mxGeometry x="280" y="360" width="120" height="60" as="geometry" />
        </mxCell>
        <mxCell id="FnhA5sjkMmNVSiz1tZPv-29" value="Room" style="whiteSpace=wrap;html=1;rounded=0;" vertex="1" parent="1">
          <mxGeometry x="280" y="820" width="120" height="60" as="geometry" />
        </mxCell>
        <mxCell id="FnhA5sjkMmNVSiz1tZPv-34" style="edgeStyle=orthogonalEdgeStyle;rounded=0;orthogonalLoop=1;jettySize=auto;html=1;" edge="1" parent="1" source="FnhA5sjkMmNVSiz1tZPv-31">
          <mxGeometry relative="1" as="geometry">
            <mxPoint x="580" y="1300" as="targetPoint" />
          </mxGeometry>
        </mxCell>
        <mxCell id="FnhA5sjkMmNVSiz1tZPv-32" value="" style="endArrow=none;dashed=1;html=1;dashPattern=1 3;strokeWidth=2;rounded=0;" edge="1" parent="1" source="FnhA5sjkMmNVSiz1tZPv-31">
          <mxGeometry width="50" height="50" relative="1" as="geometry">
            <mxPoint x="40" y="2194" as="sourcePoint" />
            <mxPoint x="40" y="1240" as="targetPoint" />
          </mxGeometry>
        </mxCell>
        <mxCell id="FnhA5sjkMmNVSiz1tZPv-33" value="" style="endArrow=none;dashed=1;html=1;dashPattern=1 3;strokeWidth=2;rounded=0;" edge="1" parent="1" source="FnhA5sjkMmNVSiz1tZPv-36">
          <mxGeometry width="50" height="50" relative="1" as="geometry">
            <mxPoint x="640" y="2194" as="sourcePoint" />
            <mxPoint x="640" y="1240" as="targetPoint" />
          </mxGeometry>
        </mxCell>
        <mxCell id="FnhA5sjkMmNVSiz1tZPv-42" value="" style="edgeStyle=orthogonalEdgeStyle;rounded=0;orthogonalLoop=1;jettySize=auto;html=1;" edge="1" parent="1" source="FnhA5sjkMmNVSiz1tZPv-35" target="FnhA5sjkMmNVSiz1tZPv-36">
          <mxGeometry relative="1" as="geometry" />
        </mxCell>
        <mxCell id="FnhA5sjkMmNVSiz1tZPv-35" value="СОхраняю ид и сессию" style="rounded=0;whiteSpace=wrap;html=1;" vertex="1" parent="1">
          <mxGeometry x="580" y="1280" width="120" height="40" as="geometry" />
        </mxCell>
        <mxCell id="FnhA5sjkMmNVSiz1tZPv-37" value="" style="endArrow=none;dashed=1;html=1;dashPattern=1 3;strokeWidth=2;rounded=0;" edge="1" parent="1" source="FnhA5sjkMmNVSiz1tZPv-43" target="FnhA5sjkMmNVSiz1tZPv-36">
          <mxGeometry width="50" height="50" relative="1" as="geometry">
            <mxPoint x="640" y="2194" as="sourcePoint" />
            <mxPoint x="640" y="1240" as="targetPoint" />
          </mxGeometry>
        </mxCell>
        <mxCell id="FnhA5sjkMmNVSiz1tZPv-39" value="" style="edgeStyle=orthogonalEdgeStyle;rounded=0;orthogonalLoop=1;jettySize=auto;html=1;" edge="1" parent="1" source="FnhA5sjkMmNVSiz1tZPv-36" target="FnhA5sjkMmNVSiz1tZPv-38">
          <mxGeometry relative="1" as="geometry" />
        </mxCell>
        <mxCell id="FnhA5sjkMmNVSiz1tZPv-36" value="СОхраняю ид и сессию" style="rounded=0;whiteSpace=wrap;html=1;" vertex="1" parent="1">
          <mxGeometry x="580" y="1340" width="120" height="40" as="geometry" />
        </mxCell>
        <mxCell id="FnhA5sjkMmNVSiz1tZPv-40" value="" style="endArrow=none;dashed=1;html=1;dashPattern=1 3;strokeWidth=2;rounded=0;" edge="1" parent="1" source="FnhA5sjkMmNVSiz1tZPv-38" target="FnhA5sjkMmNVSiz1tZPv-31">
          <mxGeometry width="50" height="50" relative="1" as="geometry">
            <mxPoint x="40" y="2194" as="sourcePoint" />
            <mxPoint x="40" y="1240" as="targetPoint" />
          </mxGeometry>
        </mxCell>
        <mxCell id="FnhA5sjkMmNVSiz1tZPv-31" value="UserId" style="rounded=0;whiteSpace=wrap;html=1;" vertex="1" parent="1">
          <mxGeometry x="-20" y="1280" width="120" height="40" as="geometry" />
        </mxCell>
        <mxCell id="FnhA5sjkMmNVSiz1tZPv-41" value="" style="endArrow=none;dashed=1;html=1;dashPattern=1 3;strokeWidth=2;rounded=0;" edge="1" parent="1" source="FnhA5sjkMmNVSiz1tZPv-67" target="FnhA5sjkMmNVSiz1tZPv-38">
          <mxGeometry width="50" height="50" relative="1" as="geometry">
            <mxPoint x="40" y="2194" as="sourcePoint" />
            <mxPoint x="40" y="1320" as="targetPoint" />
          </mxGeometry>
        </mxCell>
        <mxCell id="FnhA5sjkMmNVSiz1tZPv-38" value="Работаем братья" style="rounded=0;whiteSpace=wrap;html=1;" vertex="1" parent="1">
          <mxGeometry x="-20" y="1340" width="120" height="40" as="geometry" />
        </mxCell>
        <mxCell id="FnhA5sjkMmNVSiz1tZPv-44" value="" style="endArrow=none;dashed=1;html=1;dashPattern=1 3;strokeWidth=2;rounded=0;" edge="1" parent="1" target="FnhA5sjkMmNVSiz1tZPv-43">
          <mxGeometry width="50" height="50" relative="1" as="geometry">
            <mxPoint x="640" y="2194" as="sourcePoint" />
            <mxPoint x="640" y="1380" as="targetPoint" />
          </mxGeometry>
        </mxCell>
        <mxCell id="FnhA5sjkMmNVSiz1tZPv-45" style="edgeStyle=orthogonalEdgeStyle;rounded=0;orthogonalLoop=1;jettySize=auto;html=1;" edge="1" parent="1" source="FnhA5sjkMmNVSiz1tZPv-43">
          <mxGeometry relative="1" as="geometry">
            <mxPoint x="100" y="1420" as="targetPoint" />
          </mxGeometry>
        </mxCell>
        <mxCell id="FnhA5sjkMmNVSiz1tZPv-43" value="Не получилось сохранить" style="rounded=0;whiteSpace=wrap;html=1;" vertex="1" parent="1">
          <mxGeometry x="580" y="1400" width="120" height="40" as="geometry" />
        </mxCell>
        <mxCell id="FnhA5sjkMmNVSiz1tZPv-46" value="Не Работаем братья" style="rounded=0;whiteSpace=wrap;html=1;" vertex="1" parent="1">
          <mxGeometry x="-20" y="1390" width="120" height="60" as="geometry" />
        </mxCell>
        <mxCell id="FnhA5sjkMmNVSiz1tZPv-49" value="" style="edgeStyle=orthogonalEdgeStyle;rounded=0;orthogonalLoop=1;jettySize=auto;html=1;" edge="1" parent="1" source="FnhA5sjkMmNVSiz1tZPv-47" target="FnhA5sjkMmNVSiz1tZPv-48">
          <mxGeometry relative="1" as="geometry" />
        </mxCell>
        <mxCell id="FnhA5sjkMmNVSiz1tZPv-47" value="RoomId&lt;br&gt;UserId" style="rounded=0;whiteSpace=wrap;html=1;" vertex="1" parent="1">
          <mxGeometry x="-20" y="1560" width="120" height="60" as="geometry" />
        </mxCell>
        <mxCell id="FnhA5sjkMmNVSiz1tZPv-55" value="" style="edgeStyle=orthogonalEdgeStyle;rounded=0;orthogonalLoop=1;jettySize=auto;html=1;" edge="1" parent="1" source="FnhA5sjkMmNVSiz1tZPv-48" target="FnhA5sjkMmNVSiz1tZPv-52">
          <mxGeometry relative="1" as="geometry" />
        </mxCell>
        <mxCell id="FnhA5sjkMmNVSiz1tZPv-48" value="Добавляю в комнату етого юзера" style="rounded=0;whiteSpace=wrap;html=1;" vertex="1" parent="1">
          <mxGeometry x="580" y="1560" width="120" height="60" as="geometry" />
        </mxCell>
        <mxCell id="FnhA5sjkMmNVSiz1tZPv-53" style="edgeStyle=orthogonalEdgeStyle;rounded=0;orthogonalLoop=1;jettySize=auto;html=1;" edge="1" parent="1" source="FnhA5sjkMmNVSiz1tZPv-52">
          <mxGeometry relative="1" as="geometry">
            <mxPoint x="100" y="1670" as="targetPoint" />
          </mxGeometry>
        </mxCell>
        <mxCell id="FnhA5sjkMmNVSiz1tZPv-52" value="Добавляю в комнату етого юзера" style="rounded=0;whiteSpace=wrap;html=1;" vertex="1" parent="1">
          <mxGeometry x="580" y="1640" width="120" height="60" as="geometry" />
        </mxCell>
        <mxCell id="FnhA5sjkMmNVSiz1tZPv-54" value="Присоединяем" style="rounded=0;whiteSpace=wrap;html=1;" vertex="1" parent="1">
          <mxGeometry x="-20" y="1640" width="120" height="60" as="geometry" />
        </mxCell>
        <mxCell id="FnhA5sjkMmNVSiz1tZPv-58" value="" style="edgeStyle=orthogonalEdgeStyle;rounded=0;orthogonalLoop=1;jettySize=auto;html=1;" edge="1" parent="1" source="FnhA5sjkMmNVSiz1tZPv-56" target="FnhA5sjkMmNVSiz1tZPv-57">
          <mxGeometry relative="1" as="geometry" />
        </mxCell>
        <mxCell id="FnhA5sjkMmNVSiz1tZPv-56" value="Не получилось" style="rounded=0;whiteSpace=wrap;html=1;" vertex="1" parent="1">
          <mxGeometry x="580" y="1724" width="120" height="60" as="geometry" />
        </mxCell>
        <mxCell id="FnhA5sjkMmNVSiz1tZPv-57" value="ОБИШКА" style="rounded=0;whiteSpace=wrap;html=1;" vertex="1" parent="1">
          <mxGeometry x="-20" y="1724" width="120" height="60" as="geometry" />
        </mxCell>
        <mxCell id="FnhA5sjkMmNVSiz1tZPv-61" value="" style="edgeStyle=orthogonalEdgeStyle;rounded=0;orthogonalLoop=1;jettySize=auto;html=1;" edge="1" parent="1" source="FnhA5sjkMmNVSiz1tZPv-59" target="FnhA5sjkMmNVSiz1tZPv-60">
          <mxGeometry relative="1" as="geometry" />
        </mxCell>
        <mxCell id="FnhA5sjkMmNVSiz1tZPv-59" value="(&lt;br&gt;RoomId,&lt;br&gt;UserId,&lt;br&gt;Float32Array&lt;br&gt;)" style="rounded=0;whiteSpace=wrap;html=1;" vertex="1" parent="1">
          <mxGeometry x="-20" y="1870" width="120" height="60" as="geometry" />
        </mxCell>
        <mxCell id="FnhA5sjkMmNVSiz1tZPv-63" value="" style="edgeStyle=orthogonalEdgeStyle;rounded=0;orthogonalLoop=1;jettySize=auto;html=1;" edge="1" parent="1" source="FnhA5sjkMmNVSiz1tZPv-60" target="FnhA5sjkMmNVSiz1tZPv-62">
          <mxGeometry relative="1" as="geometry" />
        </mxCell>
        <mxCell id="FnhA5sjkMmNVSiz1tZPv-60" value="всем остальным в комнате - пересылаю" style="rounded=0;whiteSpace=wrap;html=1;" vertex="1" parent="1">
          <mxGeometry x="580" y="1870" width="120" height="60" as="geometry" />
        </mxCell>
        <mxCell id="FnhA5sjkMmNVSiz1tZPv-65" value="" style="edgeStyle=orthogonalEdgeStyle;rounded=0;orthogonalLoop=1;jettySize=auto;html=1;" edge="1" parent="1" source="FnhA5sjkMmNVSiz1tZPv-62" target="FnhA5sjkMmNVSiz1tZPv-64">
          <mxGeometry relative="1" as="geometry" />
        </mxCell>
        <mxCell id="FnhA5sjkMmNVSiz1tZPv-62" value="всем остальным в комнате - пересылаю" style="rounded=0;whiteSpace=wrap;html=1;" vertex="1" parent="1">
          <mxGeometry x="580" y="1960" width="120" height="60" as="geometry" />
        </mxCell>
        <mxCell id="FnhA5sjkMmNVSiz1tZPv-64" value="Все остальные слышат" style="rounded=0;whiteSpace=wrap;html=1;" vertex="1" parent="1">
          <mxGeometry x="-20" y="1960" width="120" height="60" as="geometry" />
        </mxCell>
        <mxCell id="FnhA5sjkMmNVSiz1tZPv-68" value="" style="edgeStyle=orthogonalEdgeStyle;rounded=0;orthogonalLoop=1;jettySize=auto;html=1;" edge="1" parent="1" source="FnhA5sjkMmNVSiz1tZPv-66" target="FnhA5sjkMmNVSiz1tZPv-67">
          <mxGeometry relative="1" as="geometry" />
        </mxCell>
        <mxCell id="FnhA5sjkMmNVSiz1tZPv-66" value="Не смог" style="rounded=0;whiteSpace=wrap;html=1;" vertex="1" parent="1">
          <mxGeometry x="580" y="2040" width="120" height="60" as="geometry" />
        </mxCell>
        <mxCell id="FnhA5sjkMmNVSiz1tZPv-69" value="" style="endArrow=none;dashed=1;html=1;dashPattern=1 3;strokeWidth=2;rounded=0;" edge="1" parent="1" target="FnhA5sjkMmNVSiz1tZPv-67">
          <mxGeometry width="50" height="50" relative="1" as="geometry">
            <mxPoint x="40" y="2194" as="sourcePoint" />
            <mxPoint x="40" y="1380" as="targetPoint" />
          </mxGeometry>
        </mxCell>
        <mxCell id="FnhA5sjkMmNVSiz1tZPv-67" value="Обишка на стороне говорящего" style="rounded=0;whiteSpace=wrap;html=1;" vertex="1" parent="1">
          <mxGeometry x="-20" y="2040" width="120" height="60" as="geometry" />
        </mxCell>
        <mxCell id="FnhA5sjkMmNVSiz1tZPv-70" value="Присоединняемся" style="text;html=1;align=center;verticalAlign=middle;resizable=0;points=[];autosize=1;strokeColor=none;fillColor=none;" vertex="1" parent="1">
          <mxGeometry x="85" y="1508" width="130" height="30" as="geometry" />
        </mxCell>
        <mxCell id="FnhA5sjkMmNVSiz1tZPv-71" value="Гритингс" style="text;html=1;align=center;verticalAlign=middle;resizable=0;points=[];autosize=1;strokeColor=none;fillColor=none;" vertex="1" parent="1">
          <mxGeometry x="105" y="1238" width="70" height="30" as="geometry" />
        </mxCell>
        <mxCell id="FnhA5sjkMmNVSiz1tZPv-72" value="Обсуждаем 4летних девочек" style="text;html=1;align=center;verticalAlign=middle;resizable=0;points=[];autosize=1;strokeColor=none;fillColor=none;" vertex="1" parent="1">
          <mxGeometry x="60" y="1818" width="180" height="30" as="geometry" />
        </mxCell>
        <mxCell id="FnhA5sjkMmNVSiz1tZPv-73" value="Ливаем" style="text;html=1;align=center;verticalAlign=middle;resizable=0;points=[];autosize=1;strokeColor=none;fillColor=none;" vertex="1" parent="1">
          <mxGeometry x="105" y="2148" width="70" height="30" as="geometry" />
        </mxCell>
        <mxCell id="FnhA5sjkMmNVSiz1tZPv-76" value="" style="edgeStyle=orthogonalEdgeStyle;rounded=0;orthogonalLoop=1;jettySize=auto;html=1;" edge="1" parent="1" source="FnhA5sjkMmNVSiz1tZPv-74" target="FnhA5sjkMmNVSiz1tZPv-75">
          <mxGeometry relative="1" as="geometry" />
        </mxCell>
        <mxCell id="FnhA5sjkMmNVSiz1tZPv-74" value="RoomId&lt;br&gt;UserId" style="rounded=0;whiteSpace=wrap;html=1;" vertex="1" parent="1">
          <mxGeometry x="-20" y="2190" width="120" height="60" as="geometry" />
        </mxCell>
        <mxCell id="FnhA5sjkMmNVSiz1tZPv-78" value="" style="edgeStyle=orthogonalEdgeStyle;rounded=0;orthogonalLoop=1;jettySize=auto;html=1;" edge="1" parent="1" source="FnhA5sjkMmNVSiz1tZPv-75" target="FnhA5sjkMmNVSiz1tZPv-77">
          <mxGeometry relative="1" as="geometry" />
        </mxCell>
        <mxCell id="FnhA5sjkMmNVSiz1tZPv-75" value="Удаляю из комнаты" style="rounded=0;whiteSpace=wrap;html=1;" vertex="1" parent="1">
          <mxGeometry x="580" y="2190" width="120" height="60" as="geometry" />
        </mxCell>
        <mxCell id="FnhA5sjkMmNVSiz1tZPv-80" value="" style="edgeStyle=orthogonalEdgeStyle;rounded=0;orthogonalLoop=1;jettySize=auto;html=1;" edge="1" parent="1" source="FnhA5sjkMmNVSiz1tZPv-77" target="FnhA5sjkMmNVSiz1tZPv-79">
          <mxGeometry relative="1" as="geometry" />
        </mxCell>
        <mxCell id="FnhA5sjkMmNVSiz1tZPv-77" value="Удаляю из комнаты" style="rounded=0;whiteSpace=wrap;html=1;" vertex="1" parent="1">
          <mxGeometry x="580" y="2270" width="120" height="60" as="geometry" />
        </mxCell>
        <mxCell id="FnhA5sjkMmNVSiz1tZPv-79" value="Удаляю" style="rounded=0;whiteSpace=wrap;html=1;" vertex="1" parent="1">
          <mxGeometry x="-20" y="2270" width="120" height="60" as="geometry" />
        </mxCell>
      </root>
    </mxGraphModel>
  </diagram>
</mxfile>
